 <svg version="1.0" xmlns="http://www.w3.org/2000/svg" width="700.000000pt" height="700.000000pt" viewBox="0 0 700.000000 700.000000" preserveAspectRatio="xMidYMid meet">
<metadata>
Created by potrace 1.12, written by Peter Selinger 2001-2015
</metadata>
<g transform="translate(0.000000,700.000000) scale(0.100000,-0.100000)" fill="#ef473a" stroke="none">
<path d="M3110 6975 c-241 -30 -298 -40 -460 -81 -540 -137 -1000 -374 -1426
-735 -119 -101 -344 -336 -461 -481 -233 -291 -421 -623 -547 -968 -59 -162
-94 -278 -125 -415 -37 -168 -51 -250 -71 -438 -51 -474 5 -993 155 -1442 72
-214 109 -304 204 -492 326 -651 896 -1219 1554 -1549 274 -138 644 -262 922
-310 243 -42 329 -48 640 -48 374 0 553 20 845 93 467 118 854 301 1245 591
300 222 603 542 823 870 526 786 707 1767 496 2700 -66 296 -126 469 -255 738
-269 564 -677 1036 -1211 1401 -368 253 -853 450 -1308 531 -352 63 -695 75
-1020 35z m830 -214 c253 -35 455 -85 677 -166 134 -49 138 -51 324 -138 228
-107 541 -316 719 -478 222 -202 331 -321 478 -519 297 -399 501 -866 591
-1355 82 -447 71 -928 -30 -1355 -141 -594 -443 -1135 -878 -1571 -431 -431
-960 -729 -1546 -871 -266 -64 -484 -89 -780 -89 -387 0 -672 45 -1060 169
-246 79 -626 275 -850 440 -197 144 -441 369 -597 547 -239 276 -475 686 -596
1040 -137 400 -189 747 -179 1190 10 397 71 706 213 1080 68 177 185 410 286
569 491 770 1249 1292 2143 1475 93 19 165 29 365 51 135 15 559 4 720 -19z"></path>
<path d="M1810 4565 l0 -235 285 0 286 0 -3 -842 -3 -843 -23 -60 c-45 -119
-117 -188 -230 -221 -73 -21 -187 -14 -267 16 -67 26 -147 99 -181 165 -19 37
-54 144 -68 208 -4 15 -12 27 -19 27 -39 0 -568 -78 -575 -84 -7 -8 36 -178
65 -256 54 -145 119 -246 214 -336 71 -66 120 -97 227 -140 150 -61 249 -77
467 -78 256 -1 377 25 555 115 208 107 336 274 413 543 20 69 21 98 24 1164
l4 1092 -586 0 -585 0 0 -235z"></path>
<path d="M3355 4783 c5 -15 386 -647 580 -963 29 -47 139 -227 244 -401 l191
-316 0 -592 0 -591 300 0 300 0 0 593 0 592 98 162 c154 257 423 704 682 1133
l238 395 -312 3 c-244 2 -313 0 -319 -10 -4 -7 -97 -168 -206 -358 -109 -190
-262 -456 -341 -592 -78 -137 -145 -248 -149 -248 -6 0 -81 126 -147 245 -15
28 -53 95 -84 150 -31 55 -69 122 -85 150 -15 27 -62 110 -104 185 -43 74
-121 213 -175 308 l-98 172 -310 0 c-291 0 -310 -1 -303 -17z"></path>
</g>
</svg>